<svg width="20" height="29" viewBox="0 0 20 29" fill="none" xmlns="http://www.w3.org/2000/svg">
<path d="M10.2539 0.89209C5.04307 0.89209 0.80365 5.13151 0.80365 10.3423C0.80365 16.8918 10.2632 28.0796 10.2632 28.0796C10.2632 28.0796 19.7041 16.5697 19.7041 10.3423C19.7041 5.13151 15.4649 0.89209 10.2539 0.89209ZM13.1052 13.1094C12.319 13.8954 11.2865 14.2885 10.2539 14.2885C9.22142 14.2885 8.18861 13.8954 7.40272 13.1094C5.83045 11.5373 5.83045 8.97914 7.40272 7.40687C8.16405 6.64521 9.17678 6.22571 10.2539 6.22571C11.331 6.22571 12.3436 6.64537 13.1052 7.40687C14.6775 8.97914 14.6775 11.5373 13.1052 13.1094Z" fill="black"/>
</svg>
